{"glyphs":{"0":{"ha":811,"x_min":65,"x_max":779,"o":"m 85 494 q 65 297 65 385 q 128 73 65 151 q 335 -6 190 -6 q 620 126 522 -6 q 760 494 718 257 q 779 690 779 603 q 717 913 779 835 q 510 992 654 992 q 224 861 321 992 q 85 494 126 731 m 663 494 q 606 277 640 365 q 510 138 572 189 q 350 86 449 86 q 204 143 247 86 q 161 306 161 200 q 181 494 161 389 q 237 710 203 622 q 333 849 271 797 q 493 900 394 900 q 639 844 596 900 q 682 682 682 788 q 663 494 682 600 z "},"1":{"ha":374,"x_min":81,"x_max":354,"o":"m 90 889 l 106 979 l 354 979 l 182 0 l 81 0 l 238 889 l 90 889 z "},"2":{"ha":776,"x_min":-22,"x_max":749,"o":"m -10 74 q 442 394 267 236 q 642 686 617 551 q 647 746 647 714 q 604 865 647 821 q 468 910 561 910 q 294 844 361 910 q 206 660 226 779 l 110 660 q 241 908 139 824 q 485 993 343 993 q 677 935 606 993 q 749 763 749 876 q 742 690 749 735 q 625 466 722 581 q 396 253 528 351 q 132 85 264 156 l 658 85 l 644 4 l -22 4 l -10 74 z "},"3":{"ha":771,"x_min":26,"x_max":756,"o":"m 499 1000 q 689 941 622 1000 q 756 786 756 882 q 751 735 756 763 q 669 589 736 649 q 490 518 603 529 l 489 510 q 634 432 581 486 q 688 288 688 378 q 682 229 688 257 q 579 56 664 122 q 353 -10 494 -10 q 110 69 194 -10 q 32 292 26 147 l 128 292 q 182 133 125 192 q 361 75 239 75 q 516 121 457 75 q 588 240 575 167 q 592 285 592 264 q 522 422 592 375 q 324 469 451 469 l 293 469 l 307 551 l 338 551 q 654 728 621 551 q 658 767 658 749 q 613 877 658 836 q 482 918 567 918 q 315 866 390 918 q 218 713 240 814 l 122 713 q 249 924 149 847 q 499 1000 350 1000 z "},"4":{"ha":811,"x_min":-7,"x_max":782,"o":"m -7 236 l 8 317 l 643 983 l 746 983 l 631 322 l 782 322 l 767 236 l 614 236 l 574 0 l 475 0 l 515 236 l -7 236 m 632 863 l 113 322 l 538 322 l 632 863 z "},"5":{"ha":825,"x_min":57,"x_max":804,"o":"m 789 901 l 269 901 l 206 539 q 326 619 251 589 q 482 650 401 650 q 680 579 615 650 q 744 394 744 508 q 736 313 744 354 q 615 83 711 174 q 363 -7 519 -7 q 138 64 219 -7 q 57 257 57 135 l 58 282 l 154 282 q 213 132 154 185 q 374 79 271 79 q 555 144 486 79 q 642 314 624 208 q 647 379 647 343 q 596 520 647 469 q 447 571 544 571 q 304 537 375 571 q 192 446 233 503 l 99 446 l 194 988 l 804 988 l 789 901 z "},"6":{"ha":831,"x_min":69,"x_max":786,"o":"m 692 721 q 506 919 685 919 q 289 808 372 919 q 172 451 206 697 q 296 597 207 543 q 493 650 385 650 q 688 585 619 650 q 757 400 757 519 q 749 313 757 358 q 687 151 733 224 q 561 34 640 78 q 374 -10 482 -10 q 139 74 208 -10 q 69 306 69 158 q 88 485 69 383 q 234 869 132 739 q 521 1000 336 1000 q 724 923 661 1000 q 785 721 786 846 l 692 721 m 164 340 q 158 282 158 314 q 213 133 158 192 q 379 75 267 75 q 562 138 486 75 q 657 314 638 201 q 664 382 664 353 q 610 524 664 475 q 461 572 557 572 q 333 547 397 572 q 223 469 269 521 q 164 340 176 417 z "},"7":{"ha":656,"x_min":68,"x_max":721,"o":"m 708 907 l 172 0 l 69 0 l 608 897 l 68 897 l 83 982 l 721 982 l 708 907 z "},"8":{"ha":851,"x_min":29,"x_max":810,"o":"m 146 760 q 207 884 158 829 q 336 971 256 939 q 521 1003 417 1003 q 735 942 660 1003 q 810 781 810 881 q 806 732 810 757 q 734 598 792 654 q 576 517 676 542 q 709 439 663 494 q 756 300 756 383 q 750 243 756 269 q 618 42 728 115 q 339 -31 508 -31 q 112 35 194 -31 q 29 217 29 100 q 35 276 29 249 q 119 430 51 368 q 294 517 188 492 q 178 587 217 538 q 140 706 140 636 q 146 760 140 724 m 240 743 q 236 701 236 721 q 291 585 236 626 q 440 544 346 544 q 620 591 549 544 q 707 722 692 638 q 711 764 711 746 q 656 881 711 840 q 507 922 601 922 q 328 876 400 922 q 240 743 256 829 m 131 278 q 126 232 126 253 q 187 99 126 146 q 353 51 247 51 q 554 106 474 51 q 653 257 635 160 q 657 301 657 281 q 594 432 657 389 q 428 475 531 475 q 231 426 314 475 q 131 278 149 376 z "},"9":{"ha":836,"x_min":63,"x_max":786,"o":"m 161 269 q 202 122 158 174 q 339 69 246 69 q 561 181 475 69 q 682 538 647 293 q 557 393 646 447 q 361 339 468 339 q 165 405 233 339 q 96 592 96 471 q 104 676 96 631 q 167 838 119 765 q 294 955 214 911 q 483 999 375 999 q 717 917 647 999 q 786 690 786 835 q 767 504 786 618 q 620 121 722 253 q 328 -11 518 -11 q 127 67 192 -11 q 69 269 63 146 l 161 269 m 690 650 q 696 707 696 689 q 642 856 696 797 q 475 914 588 914 q 292 850 368 914 q 197 672 217 786 q 190 606 190 633 q 244 465 190 514 q 393 417 297 417 q 520 442 457 417 q 630 521 583 468 q 690 650 676 574 z "},"\u0000":{"ha":0,"x_min":0,"x_max":0,"o":""},"\r":{"ha":361,"x_min":0,"x_max":0,"o":""}," ":{"ha":361,"x_min":0,"x_max":0,"o":""},"अ":{"ha":1143,"x_min":72,"x_max":1274,"o":"m 1274 1028 l 1263 953 l 1067 953 l 899 0 l 810 0 l 894 478 l 643 479 q 663 386 663 436 q 658 338 663 363 q 548 145 638 218 q 332 72 458 72 q 143 134 214 72 q 72 297 72 196 q 78 351 72 313 l 161 351 q 158 313 158 338 q 208 194 158 239 q 340 149 257 149 q 497 203 432 149 q 578 346 563 258 q 582 385 582 365 q 551 479 582 439 l 549 479 l 549 483 q 400 540 503 540 l 347 540 l 361 613 l 413 613 q 525 637 476 613 q 603 700 574 661 q 639 782 632 739 q 643 819 643 803 q 598 926 643 888 q 481 964 553 964 q 328 916 394 964 q 249 789 261 868 l 167 789 q 278 972 188 904 q 493 1040 369 1040 q 663 987 599 1040 q 726 842 726 933 q 722 796 726 819 q 652 656 707 714 q 508 579 597 599 l 508 578 q 578 553 549 571 l 908 553 l 992 1028 l 1274 1028 z "},"आ":{"ha":1542,"x_min":72,"x_max":1672,"o":"m 1274 1028 l 1263 953 l 1067 953 l 899 0 l 810 0 l 894 478 l 643 479 q 663 386 663 436 q 658 338 663 363 q 548 145 638 218 q 332 72 458 72 q 143 134 214 72 q 72 297 72 196 q 78 351 72 313 l 161 351 q 158 313 158 338 q 208 194 158 239 q 340 149 257 149 q 497 203 432 149 q 578 346 563 258 q 582 385 582 365 q 551 479 582 439 l 549 479 l 549 483 q 400 540 503 540 l 347 540 l 361 613 l 413 613 q 525 637 476 613 q 603 700 574 661 q 639 782 632 739 q 643 819 643 803 q 598 926 643 888 q 481 964 553 964 q 328 916 394 964 q 249 789 261 868 l 167 789 q 278 972 188 904 q 493 1040 369 1040 q 663 987 599 1040 q 726 842 726 933 q 722 796 726 819 q 652 656 707 714 q 508 579 597 599 l 508 578 q 578 553 549 571 l 908 553 l 992 1028 l 1274 1028 m 1375 953 l 1179 953 l 1193 1028 l 1672 1028 l 1658 953 l 1464 953 l 1297 0 l 1208 0 l 1375 953 z "},"इ":{"ha":810,"x_min":31,"x_max":963,"o":"m 731 953 l 699 769 l 696 757 l 693 739 l 686 703 l 444 703 q 303 674 364 703 q 231 572 243 646 q 228 547 228 553 q 269 469 228 494 q 376 444 311 444 l 439 444 q 616 399 546 444 q 686 257 686 354 q 682 207 686 235 q 590 46 664 108 q 396 -17 517 -17 q 269 8 319 -17 q 193 65 218 32 q 163 126 168 99 l 122 -104 l 39 -104 l 100 250 l 179 250 q 225 107 172 163 q 382 51 278 51 q 501 79 451 51 q 575 152 550 107 q 600 249 600 197 q 547 349 600 319 q 413 379 494 379 l 342 379 q 196 422 253 382 q 139 538 139 461 q 143 575 139 554 q 242 724 160 678 q 431 769 324 769 l 613 769 l 644 953 l 31 953 l 43 1028 l 963 1028 l 950 953 l 731 953 z "},"ई":{"ha":807,"x_min":32,"x_max":1121,"o":"m 943 1393 q 1074 1349 1028 1393 q 1121 1228 1121 1304 q 1115 1172 1121 1199 l 1036 1172 q 1040 1208 1040 1192 q 1011 1288 1040 1258 q 932 1318 982 1318 q 760 1135 792 1318 l 742 1028 l 963 1028 l 950 953 l 731 953 l 699 769 l 696 757 l 693 739 l 686 703 l 444 703 q 303 674 364 703 q 231 572 243 646 q 228 547 228 553 q 269 469 228 494 q 376 444 311 444 l 439 444 q 616 399 546 444 q 686 257 686 354 q 682 207 686 235 q 590 46 664 108 q 396 -17 517 -17 q 269 8 319 -17 q 193 65 218 32 q 163 126 168 99 l 122 -104 l 39 -104 l 100 250 l 179 250 q 225 107 172 163 q 382 51 278 51 q 501 79 451 51 q 575 152 550 107 q 600 249 600 197 q 547 349 600 319 q 413 379 494 379 l 342 379 q 196 422 253 382 q 139 538 139 461 q 143 575 139 554 q 242 724 160 678 q 431 769 324 769 l 613 769 l 644 953 l 32 953 l 44 1028 l 658 1028 l 678 1135 q 767 1324 700 1256 q 943 1393 833 1393 z "},"उ":{"ha":803,"x_min":33,"x_max":933,"o":"m 919 953 l 738 953 l 710 793 q 640 650 696 708 q 513 579 585 592 l 511 578 q 631 503 588 563 q 674 361 674 444 q 668 303 674 342 q 605 148 653 215 q 482 42 557 81 q 314 4 407 4 q 166 36 229 4 q 68 125 103 68 q 33 256 33 182 q 39 311 33 272 l 125 311 q 121 269 121 290 q 178 135 121 188 q 324 83 235 83 q 495 146 424 83 q 585 308 567 208 q 589 356 589 332 q 542 484 589 432 q 394 536 494 536 l 336 536 l 350 614 l 399 614 q 553 666 493 614 q 626 800 613 718 l 653 953 l 36 953 l 50 1028 l 933 1028 l 919 953 z "},"ऊ":{"ha":1206,"x_min":33,"x_max":1336,"o":"m 710 793 q 640 650 696 708 q 513 579 585 592 l 513 578 l 810 578 q 1013 525 936 578 q 1089 363 1089 472 q 1083 304 1089 332 q 973 107 1060 172 q 765 42 886 42 q 706 46 738 42 l 718 114 l 765 113 q 917 159 853 113 q 999 307 981 206 q 1003 350 1003 331 q 947 468 1003 431 q 799 506 890 506 l 624 506 q 672 356 672 446 q 667 299 672 338 q 603 147 651 214 q 481 42 556 81 q 314 4 407 4 q 166 36 229 4 q 68 125 103 68 q 33 256 33 182 q 39 311 33 272 l 125 311 q 121 269 121 290 q 178 135 121 188 q 324 83 235 83 q 495 146 424 83 q 585 308 567 208 q 589 356 589 332 q 542 484 589 432 q 394 536 494 536 l 336 536 l 350 614 l 399 614 q 553 666 493 614 q 626 800 613 718 l 653 953 l 36 953 l 50 1028 l 1336 1028 l 1322 953 l 738 953 l 710 793 z "},"ऋ":{"ha":1407,"x_min":38,"x_max":1538,"o":"m 860 953 l 799 603 l 1060 603 q 1201 703 1178 603 l 1214 774 l 1219 804 l 1297 804 l 1211 313 l 1188 313 q 1078 285 1125 313 q 1007 214 1032 258 q 982 117 982 169 q 1024 26 982 56 q 1132 -4 1065 -4 q 1213 10 1171 -4 l 1200 -64 q 1108 -76 1153 -76 q 953 -31 1013 -76 q 894 100 894 14 q 899 146 894 121 q 980 295 914 235 q 1143 368 1046 356 l 1178 568 q 1035 531 1119 531 l 786 531 l 693 0 l 610 0 l 685 424 l 199 0 l 89 0 l 90 7 l 700 519 q 648 665 703 608 q 496 722 593 722 q 290 647 376 722 q 181 446 203 572 l 92 446 q 166 631 110 551 q 306 755 222 711 q 486 799 389 799 q 639 760 579 799 q 725 650 699 721 l 778 953 l 38 953 l 50 1028 l 1538 1028 l 1525 953 l 860 953 z "},"ॠ":{"ha":1408,"x_min":36,"x_max":1539,"o":"m 860 953 l 799 603 l 1058 603 q 1201 700 1176 603 l 1213 761 l 1214 774 l 1219 804 l 1297 804 l 1211 311 l 1153 311 q 1050 284 1094 311 q 994 199 1006 257 q 993 176 993 190 q 1028 109 993 131 q 1121 88 1063 88 l 1182 88 l 1169 19 l 1106 19 q 999 -7 1044 19 q 943 -94 954 -33 q 940 -117 940 -111 q 977 -184 940 -162 q 1074 -206 1014 -206 q 1150 -199 1111 -206 q 1211 -185 1189 -193 l 1200 -253 q 1132 -270 1174 -264 q 1050 -276 1090 -276 q 908 -242 964 -276 q 853 -136 853 -207 q 897 -12 853 -61 q 1004 51 942 38 l 1006 54 q 933 95 960 65 q 907 171 907 125 q 910 201 907 179 q 990 325 925 285 q 1135 365 1054 365 l 1142 365 l 1178 569 q 1033 531 1117 531 l 785 531 l 692 0 l 610 0 l 685 425 l 197 0 l 89 0 l 90 7 l 700 519 q 647 665 703 608 q 494 722 592 722 q 288 647 375 722 q 179 446 201 572 l 90 446 q 166 631 110 551 q 305 755 222 711 q 485 799 388 799 q 638 759 578 799 q 724 649 699 719 l 778 953 l 36 953 l 50 1028 l 1539 1028 l 1525 953 l 860 953 z "},"ऌ":{"ha":1249,"x_min":33,"x_max":1376,"o":"m 996 953 l 961 760 q 1091 684 1044 746 q 1138 526 1138 622 q 1131 450 1138 494 q 1083 311 1118 372 l 1074 311 q 917 254 974 311 q 860 115 860 197 q 901 24 860 54 q 1010 -6 943 -6 q 1092 8 1047 -6 l 1079 -65 q 988 -78 1036 -78 q 832 -33 892 -78 q 772 99 772 11 q 776 147 772 122 q 858 295 792 235 q 1018 364 925 356 q 1043 450 1035 403 q 1049 513 1049 479 q 1010 638 1049 592 q 893 685 971 685 q 726 609 793 685 q 642 407 658 533 l 639 386 l 563 386 l 567 407 q 572 489 572 446 q 424 685 572 685 q 262 619 326 685 q 179 449 197 554 q 172 382 172 410 q 223 243 172 294 q 372 192 274 192 q 415 194 382 192 l 401 115 q 353 113 363 113 q 151 182 219 113 q 82 371 82 251 q 89 450 82 404 q 204 679 114 594 q 424 764 294 764 q 573 701 525 764 q 624 550 621 638 l 628 550 q 722 691 661 632 q 876 761 783 750 l 910 953 l 33 953 l 47 1028 l 1376 1028 l 1363 953 l 996 953 z "},"ॡ":{"ha":1261,"x_min":42,"x_max":1388,"o":"m 996 953 l 963 760 q 1092 685 1046 746 q 1138 528 1138 624 q 1131 450 1138 485 q 1085 311 1118 374 l 1031 311 q 927 284 971 311 q 872 199 883 257 q 869 175 869 182 q 905 109 869 131 q 999 88 940 88 l 1058 88 l 1047 19 l 983 19 q 876 -7 921 19 q 819 -94 831 -33 q 818 -115 818 -101 q 854 -184 818 -162 q 950 -206 890 -206 q 1026 -199 988 -206 q 1089 -185 1065 -193 l 1076 -253 q 1010 -270 1051 -264 q 926 -276 968 -276 q 785 -242 840 -276 q 731 -136 731 -207 q 775 -12 731 -61 q 882 51 819 38 l 883 54 q 811 94 838 65 q 785 169 785 124 q 788 201 785 179 q 867 325 803 285 q 1011 365 932 365 l 1019 365 q 1043 450 1033 400 q 1049 513 1049 479 q 1010 638 1049 592 q 893 685 971 685 q 726 609 793 685 q 642 407 658 533 l 639 386 l 563 386 l 565 407 q 571 490 571 446 q 424 685 571 685 q 261 619 326 685 q 178 449 196 554 q 172 385 172 419 q 223 243 172 294 q 372 192 274 192 q 414 194 383 192 l 400 115 q 353 113 364 113 q 151 182 219 113 q 82 371 82 251 q 89 450 82 404 q 204 679 114 594 q 422 764 294 764 q 572 701 524 764 q 624 550 621 638 l 628 550 q 722 691 661 632 q 876 761 783 750 l 910 953 l 42 953 l 56 1028 l 1388 1028 l 1375 953 l 996 953 z "},"ए":{"ha":904,"x_min":35,"x_max":1035,"o":"m 1021 953 l 857 953 l 826 779 q 735 567 800 635 q 549 499 669 499 q 501 501 535 499 l 515 582 q 544 581 525 581 q 675 628 629 581 q 740 781 721 675 l 769 953 l 313 953 l 211 379 q 204 306 204 346 q 258 156 204 210 q 414 103 313 103 q 589 166 522 103 q 675 344 656 229 l 763 344 q 645 110 738 193 q 406 26 553 26 q 189 98 263 26 q 115 296 115 169 q 124 382 115 336 l 225 953 l 35 953 l 49 1028 l 1035 1028 l 1021 953 z "},"ऐ":{"ha":904,"x_min":35,"x_max":1035,"o":"m 1021 953 l 857 953 l 826 779 q 735 567 800 635 q 549 499 669 499 q 501 501 535 499 l 515 582 q 544 581 525 581 q 675 628 629 581 q 740 781 721 675 l 769 953 l 313 953 l 211 379 q 204 306 204 346 q 258 156 204 210 q 414 103 313 103 q 589 166 522 103 q 675 344 656 229 l 763 344 q 645 110 738 193 q 406 26 553 26 q 189 98 263 26 q 115 296 115 169 q 124 382 115 336 l 225 953 l 35 953 l 49 1028 l 781 1028 q 686 1199 726 1146 q 603 1267 646 1251 q 485 1282 561 1282 l 431 1282 l 443 1356 l 496 1356 q 647 1336 593 1356 q 751 1248 701 1317 q 865 1028 801 1179 l 1035 1028 l 1021 953 z "},"ओ":{"ha":1542,"x_min":72,"x_max":1672,"o":"m 1274 1028 l 1263 953 l 1067 953 l 899 0 l 810 0 l 894 478 l 643 479 q 663 386 663 436 q 658 338 663 363 q 548 145 638 218 q 332 72 458 72 q 143 134 214 72 q 72 297 72 196 q 78 351 72 313 l 161 351 q 158 313 158 338 q 208 194 158 239 q 340 149 257 149 q 497 203 432 149 q 578 346 563 258 q 582 385 582 365 q 551 479 582 439 l 549 479 l 549 483 q 400 540 503 540 l 347 540 l 361 613 l 413 613 q 525 637 476 613 q 603 700 574 661 q 639 782 632 739 q 643 819 643 803 q 598 926 643 888 q 481 964 553 964 q 328 916 394 964 q 249 789 261 868 l 167 789 q 278 972 188 904 q 493 1040 369 1040 q 663 987 599 1040 q 726 842 726 933 q 722 796 726 819 q 652 656 707 714 q 508 579 597 599 l 508 578 q 578 553 549 571 l 908 553 l 992 1028 l 1274 1028 m 1375 953 l 1179 953 l 1193 1028 l 1672 1028 l 1658 953 l 1464 953 l 1297 0 l 1208 0 l 1375 953 m 1476 1024 q 1381 1198 1421 1144 q 1299 1267 1340 1251 q 1179 1282 1257 1282 l 1125 1282 l 1138 1356 l 1190 1356 q 1342 1336 1289 1356 q 1446 1247 1396 1317 q 1561 1024 1496 1178 l 1476 1024 z "},"औ":{"ha":1542,"x_min":72,"x_max":1672,"o":"m 1274 1028 l 1263 953 l 1067 953 l 899 0 l 810 0 l 894 478 l 643 479 q 663 386 663 436 q 658 338 663 363 q 548 145 638 218 q 332 72 458 72 q 143 134 214 72 q 72 297 72 196 q 78 351 72 313 l 161 351 q 158 313 158 338 q 208 194 158 239 q 340 149 257 149 q 497 203 432 149 q 578 346 563 258 q 582 385 582 365 q 551 479 582 439 l 549 479 l 549 483 q 400 540 503 540 l 347 540 l 361 613 l 413 613 q 525 637 476 613 q 603 700 574 661 q 639 782 632 739 q 643 819 643 803 q 598 926 643 888 q 481 964 553 964 q 328 916 394 964 q 249 789 261 868 l 167 789 q 278 972 188 904 q 493 1040 369 1040 q 663 987 599 1040 q 726 842 726 933 q 722 796 726 819 q 652 656 707 714 q 508 579 597 599 l 508 578 q 578 553 549 571 l 908 553 l 992 1028 l 1274 1028 m 1375 953 l 1179 953 l 1193 1028 l 1672 1028 l 1658 953 l 1464 953 l 1297 0 l 1208 0 l 1375 953 m 1201 1435 q 1350 1413 1300 1435 q 1448 1306 1400 1390 q 1563 1024 1496 1221 l 1485 1024 q 1369 1123 1414 1093 q 1281 1160 1324 1153 q 1154 1168 1238 1168 l 1100 1168 l 1111 1229 l 1164 1229 q 1287 1222 1244 1229 q 1372 1190 1329 1215 q 1475 1104 1415 1164 q 1388 1288 1428 1231 q 1307 1360 1349 1344 q 1193 1375 1265 1375 l 1138 1375 l 1147 1435 l 1201 1435 z "},"ऍ":{"ha":906,"x_min":1,"x_max":1001,"o":"m 538 1171 q 364 1224 422 1171 q 306 1360 306 1278 q 310 1403 306 1382 l 386 1403 q 383 1375 383 1383 q 425 1278 383 1318 q 550 1239 467 1239 q 702 1288 644 1239 q 771 1403 760 1338 l 847 1403 q 799 1289 838 1342 q 693 1203 760 1236 q 538 1171 626 1171 m 988 953 l 824 953 l 793 779 q 701 567 767 635 q 515 499 636 499 q 468 501 501 499 l 482 582 q 511 581 492 581 q 642 628 596 581 q 707 781 688 675 l 736 953 l 279 953 l 178 379 q 171 306 171 346 q 225 156 171 210 q 381 103 279 103 q 556 166 489 103 q 642 344 622 229 l 729 344 q 612 110 704 193 q 372 26 519 26 q 156 98 229 26 q 82 296 82 169 q 90 382 82 336 l 192 953 l 1 953 l 15 1028 l 1001 1028 l 988 953 z "},"ॲ":{"ha":1143,"x_min":72,"x_max":1479,"o":"m 1274 1028 l 1263 953 l 1067 953 l 899 0 l 810 0 l 894 478 l 643 479 q 663 386 663 436 q 658 338 663 363 q 548 145 638 218 q 332 72 458 72 q 143 134 214 72 q 72 297 72 196 q 78 351 72 313 l 161 351 q 158 313 158 338 q 208 194 158 239 q 340 149 257 149 q 497 203 432 149 q 578 346 563 258 q 582 385 582 365 q 551 479 582 439 l 549 479 l 549 483 q 400 540 503 540 l 347 540 l 361 613 l 413 613 q 525 637 476 613 q 603 700 574 661 q 639 782 632 739 q 643 819 643 803 q 598 926 643 888 q 481 964 553 964 q 328 916 394 964 q 249 789 261 868 l 167 789 q 278 972 188 904 q 493 1040 369 1040 q 663 987 599 1040 q 726 842 726 933 q 722 796 726 819 q 652 656 707 714 q 508 579 597 599 l 508 578 q 578 553 549 571 l 908 553 l 992 1028 l 1274 1028 m 1176 1172 q 997 1227 1058 1172 q 936 1365 936 1282 q 940 1404 936 1383 l 1018 1404 q 1015 1376 1015 1385 q 1056 1280 1015 1319 q 1181 1240 1097 1240 q 1333 1290 1275 1240 q 1403 1404 1392 1339 l 1479 1404 q 1385 1240 1463 1307 q 1176 1172 1308 1172 z "},"ऑ":{"ha":1542,"x_min":72,"x_max":1672,"o":"m 1274 1028 l 1263 953 l 1067 953 l 899 0 l 810 0 l 894 478 l 643 479 q 663 386 663 436 q 658 338 663 363 q 548 145 638 218 q 332 72 458 72 q 143 134 214 72 q 72 297 72 196 q 78 351 72 313 l 161 351 q 158 313 158 338 q 208 194 158 239 q 340 149 257 149 q 497 203 432 149 q 578 346 563 258 q 582 385 582 365 q 551 479 582 439 l 549 479 l 549 483 q 400 540 503 540 l 347 540 l 361 613 l 413 613 q 525 637 476 613 q 603 700 574 661 q 639 782 632 739 q 643 819 643 803 q 598 926 643 888 q 481 964 553 964 q 328 916 394 964 q 249 789 261 868 l 167 789 q 278 972 188 904 q 493 1040 369 1040 q 663 987 599 1040 q 726 842 726 933 q 722 796 726 819 q 652 656 707 714 q 508 579 597 599 l 508 578 q 578 553 549 571 l 908 553 l 992 1028 l 1274 1028 m 1375 953 l 1179 953 l 1193 1028 l 1672 1028 l 1658 953 l 1464 953 l 1297 0 l 1208 0 l 1375 953 m 1364 1171 q 1185 1226 1246 1171 q 1124 1364 1124 1281 q 1128 1403 1124 1382 l 1206 1403 q 1203 1375 1203 1383 q 1244 1278 1203 1318 q 1368 1239 1285 1239 q 1521 1288 1463 1239 q 1590 1403 1579 1338 l 1667 1403 q 1573 1238 1650 1306 q 1364 1171 1496 1171 z "},"ा":{"ha":399,"x_min":36,"x_max":529,"o":"m 232 953 l 36 953 l 50 1028 l 529 1028 l 515 953 l 321 953 l 154 0 l 65 0 l 232 953 z "},"ि":{"ha":399,"x_min":36,"x_max":1293,"o":"m 828 1371 q 1059 1340 954 1371 q 1228 1245 1164 1310 q 1293 1083 1293 1181 q 1288 1029 1293 1068 l 1283 1006 l 1196 1006 l 1199 1028 q 1203 1069 1203 1051 q 1087 1244 1203 1190 q 814 1297 971 1297 q 495 1239 633 1297 q 332 1028 357 1181 l 529 1028 l 515 953 l 321 953 l 153 0 l 64 0 l 232 953 l 36 953 l 50 1028 l 244 1028 q 440 1290 275 1210 q 828 1371 606 1371 z "},"ी":{"ha":397,"x_min":-158,"x_max":529,"o":"m 529 1028 l 517 953 l 321 953 l 153 0 l 64 0 l 232 953 l 38 953 l 50 1028 l 247 1028 l 258 1088 q 265 1156 265 1126 q 235 1256 265 1218 q 139 1294 206 1294 q -57 1088 -15 1294 l -72 1007 l -158 1007 l -143 1085 q -48 1292 -121 1214 q 153 1371 25 1371 q 305 1317 257 1371 q 353 1171 353 1264 q 344 1085 353 1129 l 333 1028 l 529 1028 z "},"ु":{"ha":0,"x_min":-696,"x_max":-118,"o":"m -428 -401 q -620 -347 -544 -401 q -696 -189 -696 -293 q -687 -119 -696 -157 l -608 -119 q -615 -176 -615 -154 q -562 -292 -615 -253 q -419 -331 -508 -331 q -272 -290 -331 -331 q -200 -174 -212 -249 q -197 -147 -197 -154 q -226 -67 -197 -99 q -311 -36 -256 -36 l -340 -36 l -328 35 l -299 35 q -166 -15 -214 35 q -118 -139 -118 -64 q -121 -176 -118 -151 q -221 -342 -139 -282 q -428 -401 -303 -401 z "},"ू":{"ha":0,"x_min":-579,"x_max":-8,"o":"m -382 -393 q -522 -348 -464 -393 q -579 -224 -579 -303 q -575 -185 -579 -206 q -481 -26 -558 -83 q -290 32 -404 32 q -84 -44 -160 32 q -8 -250 -8 -121 q -18 -344 -8 -297 q -22 -366 -19 -354 q -26 -383 -25 -378 l -100 -383 l -90 -335 q -83 -260 -83 -301 q -141 -96 -83 -156 q -296 -36 -199 -36 q -435 -78 -378 -36 q -501 -187 -492 -119 q -504 -215 -504 -207 q -467 -295 -504 -265 q -371 -325 -429 -325 q -326 -322 -342 -325 l -339 -390 q -382 -393 -367 -393 z "},"ृ":{"ha":0,"x_min":-574,"x_max":-229,"o":"m -356 -421 q -462 -398 -412 -421 q -543 -331 -512 -375 q -574 -225 -574 -286 q -569 -182 -574 -206 q -475 -26 -553 -85 q -278 33 -397 33 l -240 33 l -251 -32 l -282 -32 q -431 -82 -375 -32 q -486 -211 -486 -132 q -441 -312 -486 -275 q -331 -349 -396 -349 q -229 -333 -281 -349 l -242 -404 q -356 -421 -294 -421 z "},"ॄ":{"ha":0,"x_min":-600,"x_max":-240,"o":"m -401 -608 q -544 -571 -487 -608 q -600 -462 -600 -533 q -597 -429 -600 -440 q -544 -331 -585 -369 q -447 -281 -503 -293 l -447 -278 q -519 -237 -493 -267 q -546 -161 -546 -207 q -543 -131 -546 -153 q -462 -7 -528 -47 q -318 33 -397 33 l -240 33 l -249 -21 l -299 -21 q -402 -48 -358 -21 q -457 -133 -446 -75 q -460 -157 -460 -150 q -424 -223 -460 -201 q -332 -244 -389 -244 l -271 -244 l -282 -312 l -346 -312 q -454 -338 -408 -312 q -510 -421 -500 -364 q -512 -443 -512 -437 q -474 -513 -512 -489 q -378 -537 -436 -537 q -303 -531 -342 -537 q -240 -515 -264 -524 l -253 -585 q -322 -601 -281 -594 q -401 -608 -362 -608 z "},"ॢ":{"ha":0,"x_min":-718,"x_max":51,"o":"m 4 -358 q -110 -397 -68 -358 q -151 -493 -151 -436 q -120 -558 -151 -536 q -42 -581 -89 -581 q 18 -571 -8 -581 l 7 -631 q -60 -639 -26 -639 q -176 -606 -132 -639 q -221 -508 -221 -572 q -170 -377 -221 -432 q -42 -314 -119 -322 q -26 -258 -35 -294 q -22 -212 -22 -233 q -49 -124 -22 -157 q -132 -92 -76 -92 q -244 -144 -200 -92 q -306 -287 -287 -197 l -308 -303 l -371 -303 l -368 -287 q -361 -221 -361 -258 q -388 -126 -361 -160 q -468 -92 -415 -92 q -583 -138 -537 -92 q -640 -260 -628 -185 q -644 -301 -644 -283 q -608 -401 -644 -364 q -504 -439 -572 -439 q -474 -436 -490 -439 l -486 -499 q -519 -501 -503 -501 q -667 -451 -617 -501 q -718 -314 -718 -400 q -712 -258 -718 -297 q -626 -91 -694 -153 q -465 -29 -558 -29 q -358 -74 -392 -29 q -321 -182 -324 -118 l -318 -182 q -240 -74 -292 -118 q -110 -29 -189 -29 q 9 -75 -33 -29 q 51 -201 51 -121 q 46 -258 51 -219 q 13 -358 38 -311 l 4 -358 z "},"ॣ":{"ha":0,"x_min":-717,"x_max":51,"o":"m -29 -358 q -101 -377 -71 -358 q -139 -436 -132 -396 q -140 -450 -140 -442 q -116 -499 -140 -483 q -50 -515 -92 -515 l -7 -515 l -17 -571 l -58 -571 q -137 -589 -104 -571 q -178 -651 -169 -607 q -179 -665 -179 -657 q -153 -712 -179 -697 q -85 -728 -126 -728 q 15 -711 -35 -728 l 6 -767 q -103 -783 -44 -783 q -207 -758 -167 -783 q -247 -681 -247 -733 q -215 -590 -247 -625 q -136 -546 -182 -556 l -136 -543 q -188 -512 -169 -535 q -207 -456 -207 -490 q -206 -433 -207 -442 q -148 -342 -194 -372 q -43 -312 -101 -312 l -42 -312 q -26 -258 -35 -294 q -22 -212 -22 -233 q -49 -124 -22 -157 q -132 -92 -76 -92 q -244 -144 -200 -92 q -306 -287 -287 -197 l -308 -303 l -369 -303 l -367 -287 q -360 -224 -360 -249 q -387 -127 -360 -162 q -468 -92 -415 -92 q -583 -138 -537 -92 q -640 -260 -628 -185 q -644 -301 -644 -283 q -608 -402 -644 -365 q -503 -439 -572 -439 q -474 -436 -490 -439 l -485 -499 q -519 -501 -504 -501 q -667 -450 -617 -501 q -717 -312 -717 -399 q -712 -258 -717 -287 q -626 -91 -693 -153 q -465 -29 -558 -29 q -358 -74 -392 -29 q -321 -182 -324 -118 l -318 -182 q -240 -74 -292 -118 q -110 -29 -189 -29 q 9 -75 -33 -29 q 51 -201 51 -121 q 46 -258 51 -219 q 13 -358 38 -311 l -29 -358 z "},"े":{"ha":0,"x_min":-501,"x_max":-65,"o":"m -150 1024 q -246 1198 -206 1144 q -328 1267 -286 1251 q -447 1282 -369 1282 l -501 1282 l -489 1356 l -436 1356 q -284 1336 -337 1356 q -181 1247 -231 1317 q -65 1024 -131 1178 l -150 1024 z "},"ै":{"ha":0,"x_min":-531,"x_max":-68,"o":"m -429 1435 q -281 1413 -331 1435 q -183 1306 -231 1390 q -68 1024 -135 1221 l -146 1024 q -262 1123 -217 1093 q -350 1160 -307 1153 q -476 1168 -393 1168 l -531 1168 l -519 1229 l -467 1229 q -344 1222 -386 1229 q -258 1190 -301 1215 q -156 1104 -215 1164 q -242 1288 -203 1231 q -324 1360 -282 1344 q -437 1375 -365 1375 l -493 1375 l -483 1435 l -429 1435 z "},"ो":{"ha":399,"x_min":-103,"x_max":529,"o":"m 529 1028 l 517 953 l 321 953 l 153 0 l 64 0 l 232 953 l 38 953 l 50 1028 l 247 1028 q 153 1199 193 1146 q 70 1267 113 1251 q -50 1282 28 1282 l -103 1282 l -90 1356 l -37 1356 q 114 1336 60 1356 q 218 1248 168 1317 q 332 1028 268 1179 l 529 1028 z "},"ौ":{"ha":399,"x_min":-167,"x_max":493,"o":"m 493 1028 l 481 953 l 285 953 l 118 0 l 29 0 l 196 953 l 1 953 l 14 1028 l 215 1028 q 100 1124 144 1096 q 13 1160 56 1153 q -112 1168 -29 1168 l -167 1168 l -156 1229 l -103 1229 q 20 1222 -22 1229 q 106 1190 63 1215 q 208 1104 149 1164 q 122 1288 161 1231 q 41 1360 82 1344 q -74 1375 0 1375 l -129 1375 l -119 1435 l -65 1435 q 83 1413 33 1435 q 181 1306 133 1390 q 294 1028 229 1222 l 493 1028 z "},"ॅ":{"ha":0,"x_min":-324,"x_max":219,"o":"m -83 1139 q -262 1194 -201 1139 q -324 1332 -324 1249 q -319 1371 -324 1350 l -242 1371 q -244 1343 -244 1351 q -203 1247 -244 1286 q -79 1207 -162 1207 q 74 1256 15 1207 q 143 1371 132 1306 l 219 1371 q 126 1206 203 1274 q -83 1139 49 1139 z "},"ॉ":{"ha":400,"x_min":36,"x_max":619,"o":"m 317 1139 q 138 1194 199 1139 q 76 1332 76 1249 q 81 1371 76 1350 l 158 1371 q 156 1343 156 1351 q 197 1247 156 1286 q 321 1207 238 1207 q 474 1256 415 1207 q 543 1371 532 1306 l 619 1371 q 526 1206 603 1274 q 317 1139 449 1139 m 232 953 l 36 953 l 50 1028 l 529 1028 l 515 953 l 321 953 l 154 0 l 65 0 l 232 953 z "},"क":{"ha":1392,"x_min":36,"x_max":1522,"o":"m 824 953 l 767 629 q 878 743 810 700 q 1040 786 947 786 q 1219 718 1150 786 q 1288 539 1288 650 q 1281 469 1288 508 q 1213 298 1263 369 q 1092 189 1164 226 q 935 151 1019 151 q 851 161 890 151 l 864 233 q 928 226 886 226 q 1098 292 1024 226 q 1192 471 1172 358 q 1196 522 1196 499 q 1144 659 1196 608 q 1008 710 1092 710 q 832 642 901 710 q 740 478 763 574 l 656 0 l 571 0 l 624 303 q 508 190 581 232 q 342 147 436 147 q 159 215 229 147 q 89 400 89 283 q 96 472 89 431 q 164 638 113 567 q 290 748 215 710 q 450 786 364 786 q 605 743 547 786 q 682 629 663 700 l 739 953 l 36 953 l 50 1028 l 1522 1028 l 1510 953 l 824 953 m 656 483 q 657 517 657 494 q 609 654 657 599 q 461 710 561 710 q 339 681 397 710 q 239 597 281 651 q 185 471 197 543 q 181 417 181 442 q 234 275 181 326 q 376 224 288 224 q 512 259 454 224 q 604 347 569 294 q 651 457 639 400 l 656 483 z "},"ख":{"ha":1286,"x_min":38,"x_max":1417,"o":"m 1417 1028 l 1404 953 l 1208 953 l 1042 0 l 953 0 l 1011 328 q 910 234 972 269 q 767 199 847 199 q 713 204 735 199 q 567 55 657 113 q 367 -3 478 -3 q 158 64 233 -3 q 83 251 83 131 q 90 326 83 282 l 129 551 l 182 551 q 421 768 383 551 l 453 953 l 38 953 l 50 1028 l 1417 1028 m 1121 953 l 542 953 l 508 758 q 403 548 482 611 q 211 485 324 485 l 206 485 l 176 318 q 171 264 171 279 q 226 126 171 176 q 383 75 282 75 q 534 119 467 75 q 644 231 601 163 q 567 312 594 260 q 539 433 539 364 q 544 493 539 465 q 603 637 558 575 q 715 732 649 699 q 857 765 781 765 q 994 729 942 765 q 1065 635 1046 693 l 1121 953 m 796 269 q 915 301 864 269 q 998 382 967 333 q 1038 482 1029 431 q 1042 525 1042 503 q 998 647 1042 597 q 864 696 954 696 q 707 639 775 696 q 622 486 639 582 q 618 438 618 461 q 667 314 618 358 q 796 269 717 269 z "},"ग":{"ha":1010,"x_min":36,"x_max":1140,"o":"m 1140 1028 l 1126 953 l 932 953 l 764 0 l 676 0 l 843 953 l 578 953 l 508 561 q 428 396 490 460 q 260 332 367 332 q 122 381 169 332 q 74 508 74 429 q 78 556 74 531 q 88 599 83 583 l 174 599 l 165 554 q 161 515 161 536 q 186 438 161 468 q 265 408 211 408 q 371 451 335 408 q 419 558 407 494 l 489 953 l 36 953 l 50 1028 l 1140 1028 z "},"घ":{"ha":992,"x_min":36,"x_max":1122,"o":"m 1108 953 l 914 953 l 746 0 l 657 0 l 714 326 q 568 198 658 244 q 371 151 478 151 q 173 206 249 151 q 97 358 97 260 q 101 406 97 381 q 183 551 117 494 q 335 619 250 608 l 335 622 q 235 671 272 632 q 197 781 197 710 q 203 836 197 810 l 225 953 l 36 953 l 50 1028 l 1122 1028 l 1108 953 m 825 953 l 313 953 l 292 840 q 288 793 288 815 q 331 692 288 726 q 467 658 374 658 l 535 658 l 522 585 l 447 585 q 254 525 319 585 q 189 375 189 465 q 247 263 189 301 q 401 225 306 225 q 552 258 481 225 q 674 350 624 290 q 743 486 725 410 l 825 953 z "},"ङ":{"ha":903,"x_min":39,"x_max":1033,"o":"m 1033 1028 l 1019 953 l 725 953 l 693 768 l 688 742 l 688 739 l 681 703 l 439 703 q 300 674 360 703 q 228 572 240 646 q 225 547 225 553 q 266 469 225 494 q 371 444 307 444 l 433 444 q 610 399 539 444 q 681 258 681 353 q 676 210 681 235 q 574 44 658 107 q 351 -18 490 -18 q 134 44 213 -18 q 56 207 56 107 q 60 250 56 229 l 149 250 q 146 214 146 238 q 200 96 146 140 q 358 51 254 51 q 517 97 456 51 q 592 213 579 143 q 594 249 594 225 q 542 349 594 319 q 407 379 489 379 l 350 379 q 199 418 261 379 q 136 538 136 457 q 140 576 136 556 q 237 723 157 678 q 422 768 317 768 l 607 768 l 639 953 l 39 953 l 51 1028 l 1033 1028 m 828 615 q 865 601 850 615 q 879 567 879 588 q 857 517 879 538 q 807 496 835 496 q 769 509 783 496 q 756 543 756 522 q 777 594 756 572 q 828 615 799 615 z "},"च":{"ha":1014,"x_min":36,"x_max":1144,"o":"m 1131 953 l 936 953 l 768 0 l 679 0 l 733 303 q 602 188 682 231 q 432 144 522 144 q 250 206 321 144 q 179 372 179 267 q 183 426 179 397 q 246 569 197 507 q 368 667 294 632 l 96 667 l 108 739 l 610 739 l 597 667 l 551 667 q 365 602 442 667 q 269 439 288 538 q 265 396 265 417 q 322 266 265 313 q 467 219 379 219 q 599 253 538 219 q 702 342 660 286 q 761 464 744 397 l 849 953 l 36 953 l 50 1028 l 1144 1028 l 1131 953 z "},"छ":{"ha":1129,"x_min":35,"x_max":1260,"o":"m 932 953 l 900 767 q 1019 700 974 754 q 1064 554 1064 646 q 1057 481 1064 525 q 951 246 1033 346 q 742 93 868 146 q 464 40 615 40 q 259 71 349 40 q 119 160 169 101 q 69 299 69 218 q 74 349 69 324 q 159 505 92 446 q 318 578 226 564 l 318 581 q 219 628 256 590 q 182 739 182 667 q 188 794 182 767 l 215 953 l 35 953 l 47 1028 l 1260 1028 l 1247 953 l 932 953 m 849 953 l 304 953 l 276 797 q 272 749 272 771 q 314 650 272 683 q 446 617 356 617 l 478 617 l 465 543 l 435 543 q 285 511 347 543 q 191 427 222 479 q 160 313 160 375 q 247 167 160 218 q 478 117 333 117 q 710 161 604 117 q 888 288 817 206 q 978 483 958 371 q 983 542 983 511 q 944 660 983 619 q 846 701 904 701 q 726 658 782 701 q 653 528 669 615 q 649 469 649 499 q 654 393 649 428 l 578 393 q 572 464 572 440 q 579 535 572 497 q 663 698 597 640 q 817 767 729 756 l 849 953 z "},"ज":{"ha":1160,"x_min":36,"x_max":1290,"o":"m 1278 953 l 1082 953 l 915 0 l 826 0 l 936 621 l 644 621 l 617 465 q 515 268 596 343 q 313 193 433 193 q 157 253 214 194 q 100 407 100 311 q 106 468 100 440 l 146 697 l 235 697 l 194 467 q 190 417 190 440 q 226 311 190 350 q 325 272 261 272 q 460 326 404 272 q 531 467 515 379 l 572 697 l 950 697 l 994 953 l 36 953 l 50 1028 l 1290 1028 l 1278 953 z "},"झ":{"ha":1182,"x_min":46,"x_max":1313,"o":"m 1299 953 l 1104 953 l 936 0 l 849 0 l 915 376 l 621 378 q 682 247 682 332 q 678 203 682 226 q 590 52 661 111 q 400 -7 518 -7 q 242 37 297 -7 q 171 124 186 81 l 131 -106 l 46 -106 l 107 239 l 186 239 q 235 112 183 163 q 390 61 286 61 q 547 115 493 61 q 600 247 600 169 q 551 344 600 310 q 413 379 503 379 l 343 379 q 197 422 254 382 q 139 538 139 461 q 143 578 139 557 q 241 724 160 679 q 431 769 322 769 l 613 769 l 644 953 l 47 953 l 60 1028 l 1313 1028 l 1299 953 m 1017 953 l 731 953 l 699 769 l 696 757 l 693 739 l 686 703 l 444 703 q 305 674 367 703 q 231 572 243 646 q 228 547 228 553 q 269 469 228 494 q 376 444 311 444 l 439 444 l 926 444 l 1017 953 z "},"ञ":{"ha":1115,"x_min":36,"x_max":1246,"o":"m 1232 953 l 1039 953 l 871 0 l 782 0 l 857 429 l 701 429 q 573 220 668 303 q 340 138 478 138 q 194 170 253 138 q 106 256 135 203 q 78 371 78 308 l 163 371 q 215 260 168 306 q 353 214 263 214 q 535 285 463 214 q 626 464 607 357 q 632 519 632 503 q 583 658 632 604 q 440 711 535 711 q 285 664 349 711 q 194 553 221 617 l 110 553 q 233 720 143 653 q 454 788 322 788 q 649 717 582 788 q 715 533 715 646 l 714 506 l 871 506 l 950 953 l 36 953 l 50 1028 l 1246 1028 l 1232 953 z "},"ट":{"ha":900,"x_min":32,"x_max":1031,"o":"m 536 701 q 295 628 397 701 q 168 417 193 556 q 163 364 163 381 q 229 206 163 267 q 406 146 296 146 q 620 224 532 146 q 729 428 708 303 l 815 428 q 740 240 797 321 q 594 113 682 158 q 396 68 506 68 q 230 104 303 68 q 116 205 157 140 q 75 354 75 269 q 81 419 75 390 q 237 686 111 594 q 544 778 363 778 l 589 778 l 619 953 l 32 953 l 44 1028 l 1031 1028 l 1017 953 l 707 953 l 663 701 l 536 701 z "},"ठ":{"ha":935,"x_min":31,"x_max":1065,"o":"m 585 953 l 550 765 q 744 675 669 753 q 819 478 819 597 q 814 413 819 442 q 735 234 796 311 q 583 115 674 157 q 389 72 493 72 q 228 108 299 72 q 117 210 157 144 q 76 361 76 275 q 82 426 76 397 q 153 597 99 522 q 289 715 208 671 q 463 767 369 758 l 497 953 l 31 953 l 44 1028 l 1065 1028 l 1051 953 l 585 953 m 725 415 q 731 471 731 442 q 667 631 731 569 q 496 692 603 692 q 348 658 418 692 q 231 563 278 624 q 169 424 183 501 q 165 371 165 397 q 229 210 165 272 q 399 147 293 147 q 547 181 476 147 q 664 276 617 215 q 725 415 711 338 z "},"ड":{"ha":803,"x_min":39,"x_max":933,"o":"m 439 703 q 300 674 360 703 q 228 572 240 646 q 225 547 225 553 q 266 469 225 494 q 371 444 307 444 l 433 444 q 610 399 539 444 q 681 258 681 353 q 676 210 681 235 q 574 44 658 107 q 351 -18 490 -18 q 134 44 213 -18 q 56 207 56 107 q 60 250 56 229 l 149 250 q 146 214 146 238 q 200 96 146 140 q 358 51 254 51 q 517 97 456 51 q 592 213 579 143 q 594 249 594 225 q 542 349 594 319 q 407 379 489 379 l 350 379 q 199 418 261 379 q 136 538 136 457 q 140 576 136 556 q 237 723 157 678 q 422 768 317 768 l 599 768 l 631 953 l 39 953 l 51 1028 l 933 1028 l 919 953 l 717 953 l 672 703 l 439 703 z "},"ढ":{"ha":883,"x_min":35,"x_max":1014,"o":"m 571 717 q 388 681 472 717 q 244 572 303 644 q 168 396 186 500 q 163 333 163 367 q 237 153 163 221 q 438 85 311 85 q 625 141 546 85 q 719 286 704 197 q 722 319 722 308 q 687 410 722 375 q 593 446 651 446 q 485 408 532 446 q 429 310 439 371 q 426 281 426 300 l 358 281 q 363 319 358 303 q 445 460 378 408 q 607 511 513 511 q 748 460 694 511 q 801 326 801 408 q 797 283 801 307 q 733 145 783 206 q 604 51 683 85 q 428 18 525 18 q 245 57 325 18 q 121 167 165 96 q 76 332 76 238 q 82 401 76 369 q 173 612 104 526 q 342 739 242 697 q 560 781 443 781 l 622 781 l 653 953 l 35 953 l 49 1028 l 1014 1028 l 1000 953 l 736 953 l 696 717 l 571 717 z "},"ण":{"ha":1174,"x_min":36,"x_max":1304,"o":"m 1292 953 l 1096 953 l 929 0 l 840 0 l 1008 953 l 714 953 l 642 539 q 543 344 619 418 q 350 269 467 269 q 188 326 247 269 q 129 479 129 383 q 135 539 129 511 l 208 953 l 36 953 l 50 1028 l 1304 1028 l 1292 953 m 628 953 l 294 953 l 221 531 q 217 486 217 508 q 253 383 217 422 q 354 344 289 344 q 485 396 432 344 q 553 531 538 447 l 628 953 z "},"त":{"ha":958,"x_min":36,"x_max":1089,"o":"m 1075 953 l 881 953 l 713 0 l 625 0 l 733 617 l 522 617 q 282 549 376 617 q 163 346 188 481 q 157 282 157 317 q 218 128 157 182 q 399 75 279 75 l 429 75 l 417 3 l 381 3 q 152 74 238 3 q 67 276 67 144 q 74 350 67 306 q 226 608 104 524 q 531 693 347 693 l 747 693 l 792 953 l 36 953 l 50 1028 l 1089 1028 l 1075 953 z "},"थ":{"ha":1053,"x_min":110,"x_max":1183,"o":"m 1183 1028 l 1171 953 l 975 953 l 807 0 l 718 0 l 778 332 q 704 243 753 286 q 586 172 656 200 q 436 144 517 144 q 197 223 285 144 q 110 438 110 301 q 118 518 110 476 q 133 583 122 547 l 274 583 q 492 630 400 583 q 604 793 583 676 q 607 829 607 806 q 571 926 607 889 q 468 964 535 964 q 315 896 371 964 q 258 722 258 828 l 178 722 q 216 885 179 813 q 321 999 253 957 q 479 1040 389 1040 q 635 986 578 1040 q 693 842 693 932 q 688 790 693 826 q 556 584 663 651 q 292 517 449 517 q 204 518 226 517 q 196 446 196 481 q 265 280 196 340 q 458 219 333 219 q 615 256 540 219 q 741 358 689 292 q 808 511 793 425 l 899 1028 l 1183 1028 z "},"द":{"ha":847,"x_min":38,"x_max":978,"o":"m 517 713 q 300 649 392 713 q 186 465 208 586 q 182 414 182 439 q 236 274 182 326 q 383 222 290 222 q 490 244 436 222 q 584 313 543 267 q 636 428 625 360 l 717 428 l 640 -15 l 553 -15 l 603 271 q 498 183 565 215 q 351 150 431 150 q 163 218 235 150 q 90 403 90 286 q 97 471 90 432 q 243 710 125 629 q 522 790 361 790 l 635 790 l 665 953 l 38 953 l 51 1028 l 978 1028 l 964 953 l 754 953 l 711 713 l 517 713 z "},"ध":{"ha":983,"x_min":100,"x_max":1114,"o":"m 1101 953 l 908 953 l 740 0 l 651 0 l 708 326 q 562 192 654 242 q 360 143 469 143 q 174 197 247 143 q 100 343 100 250 q 104 386 100 364 q 181 524 121 474 q 313 585 240 575 l 313 589 q 209 649 250 603 q 168 769 168 694 q 172 818 168 793 q 263 978 189 917 q 439 1040 336 1040 q 582 994 531 1040 q 633 865 633 947 q 621 781 633 826 l 551 781 q 561 843 561 811 q 527 933 561 900 q 431 965 493 965 q 337 938 379 965 q 269 866 294 911 q 244 768 244 821 q 292 663 244 700 q 428 625 339 625 l 515 625 l 503 553 l 428 553 q 255 499 317 553 q 193 364 193 446 q 248 256 193 293 q 392 218 303 218 q 545 253 472 218 q 669 352 618 289 q 739 496 721 415 l 822 971 l 832 1028 l 1114 1028 l 1101 953 z "},"न":{"ha":1085,"x_min":36,"x_max":1215,"o":"m 1201 953 l 1008 953 l 839 0 l 751 0 l 863 629 l 558 629 q 604 567 588 604 q 621 482 621 529 q 617 432 621 460 q 560 300 604 357 q 451 212 515 243 q 313 181 386 181 q 140 240 206 181 q 75 396 75 300 q 79 444 75 419 q 191 634 101 565 q 408 703 281 703 l 875 703 l 919 953 l 36 953 l 50 1028 l 1215 1028 l 1201 953 m 549 481 q 504 587 549 546 q 388 628 460 628 q 238 576 301 628 q 161 440 175 524 q 158 404 158 428 q 203 297 158 338 q 322 257 247 257 q 435 288 383 257 q 518 369 488 318 q 549 481 549 421 z "},"प":{"ha":901,"x_min":36,"x_max":1032,"o":"m 1018 953 l 824 953 l 657 0 l 568 0 l 640 414 q 533 321 597 354 q 386 288 468 288 q 200 355 265 288 q 135 542 135 422 q 143 628 135 582 l 201 953 l 36 953 l 50 1028 l 1032 1028 l 1018 953 m 735 953 l 290 953 l 232 628 q 225 556 225 583 q 273 414 225 464 q 414 364 321 364 q 584 428 515 364 q 671 589 653 492 l 735 953 z "},"फ":{"ha":1369,"x_min":36,"x_max":1500,"o":"m 797 953 l 740 628 q 856 743 783 700 q 1024 786 928 786 q 1199 720 1133 786 q 1265 542 1265 654 q 1260 474 1265 506 q 1191 301 1242 374 q 1067 190 1140 228 q 911 151 994 151 q 826 163 863 151 l 839 233 q 906 225 868 225 q 1076 291 1003 225 q 1169 471 1149 357 q 1174 521 1174 499 q 1122 659 1174 608 q 986 710 1069 710 q 850 673 908 710 q 757 578 792 636 q 710 457 722 521 l 631 0 l 542 0 l 614 415 q 510 321 572 354 q 369 288 447 288 q 194 351 254 288 q 135 531 135 415 q 143 624 135 574 l 201 953 l 36 953 l 50 1028 l 1500 1028 l 1486 953 l 797 953 m 708 953 l 290 953 l 232 624 q 224 543 224 581 q 267 410 224 457 q 400 364 311 364 q 557 423 493 364 q 642 574 621 482 l 708 953 z "},"ब":{"ha":957,"x_min":36,"x_max":1088,"o":"m 1088 1028 l 1075 953 l 879 953 l 713 0 l 626 0 l 681 304 q 558 185 636 231 q 376 139 479 139 q 229 172 294 139 q 127 265 164 204 q 90 406 90 325 q 96 471 90 442 q 169 645 114 571 q 307 760 225 719 q 483 800 389 800 q 651 753 586 800 q 738 633 715 707 l 793 953 l 36 953 l 50 1028 l 1088 1028 m 713 469 q 717 521 717 494 q 660 676 717 613 q 492 739 603 739 q 386 721 438 739 q 293 669 335 703 l 631 307 q 685 385 664 343 q 713 469 706 428 m 175 468 q 171 415 171 442 q 235 261 171 317 q 401 206 300 206 q 597 275 514 206 l 258 638 q 175 468 193 568 z "},"भ":{"ha":1082,"x_min":86,"x_max":1213,"o":"m 1213 1028 l 1200 953 l 1004 953 l 836 0 l 747 0 l 844 553 l 603 553 l 582 435 q 485 226 558 299 q 297 154 411 154 q 143 206 200 154 q 86 343 86 257 q 90 390 86 365 q 194 564 111 500 q 389 628 276 628 l 532 628 l 556 765 q 563 835 563 807 q 449 963 563 963 q 340 920 386 963 q 281 803 294 878 q 276 747 276 778 l 189 747 q 192 806 188 775 q 282 976 211 913 q 457 1040 353 1040 q 599 988 553 1040 q 646 842 646 936 q 638 753 646 801 l 615 628 l 857 628 l 928 1028 l 1213 1028 m 518 553 l 379 553 q 244 509 301 553 q 174 392 188 465 q 171 358 171 369 q 208 265 171 300 q 306 231 244 231 q 430 283 379 231 q 497 431 481 336 l 518 553 z "},"म":{"ha":1071,"x_min":36,"x_max":1201,"o":"m 1188 953 l 993 953 l 825 0 l 736 0 l 833 553 l 560 553 l 539 435 q 442 226 515 299 q 254 154 368 154 q 101 206 158 154 q 44 343 44 257 q 49 390 44 365 q 149 564 67 500 q 346 628 232 628 l 489 628 l 546 953 l 36 953 l 50 1028 l 1201 1028 l 1188 953 m 904 953 l 631 953 l 574 628 l 846 628 l 904 953 m 475 553 l 335 553 q 188 499 247 553 q 129 357 129 446 q 166 265 129 299 q 264 231 203 231 q 388 283 338 231 q 454 431 438 336 l 475 553 z "},"य":{"ha":1017,"x_min":36,"x_max":1147,"o":"m 1135 953 l 939 953 l 772 0 l 683 0 l 740 325 q 607 210 690 254 q 417 165 524 165 q 185 247 269 165 q 100 468 100 328 q 108 557 100 510 q 122 618 119 607 l 144 618 q 345 670 268 618 q 446 849 422 722 l 464 953 l 36 953 l 50 1028 l 1147 1028 l 1135 953 m 850 953 l 551 953 l 531 836 q 422 633 507 699 q 197 565 336 568 q 194 550 194 554 q 188 475 188 517 q 255 303 188 365 q 442 242 322 242 q 589 274 519 242 q 706 366 658 307 q 771 501 754 425 l 850 953 z "},"र":{"ha":746,"x_min":38,"x_max":876,"o":"m 864 953 l 685 953 l 660 806 q 539 567 632 649 q 293 485 446 485 l 206 485 l 171 282 q 164 222 164 247 q 203 107 164 150 q 318 64 243 64 q 453 118 399 64 q 524 265 507 172 l 526 288 l 613 288 l 610 268 q 510 63 588 138 q 313 -12 432 -12 q 139 49 201 -12 q 76 214 76 111 q 83 286 76 256 l 131 558 l 279 558 q 475 620 401 558 q 571 806 549 682 l 597 953 l 38 953 l 51 1028 l 876 1028 l 864 953 z "},"ल":{"ha":1243,"x_min":28,"x_max":1374,"o":"m 997 953 l 964 756 q 1090 677 1044 740 q 1135 518 1135 614 q 1128 443 1135 488 q 1003 202 1101 294 q 751 110 906 110 q 697 113 733 110 l 713 192 q 753 189 738 189 q 942 260 868 189 q 1038 446 1017 331 q 1043 507 1043 474 q 1003 634 1043 586 q 886 682 964 682 q 722 607 788 682 q 635 404 657 532 l 632 386 l 556 386 l 558 404 q 568 497 568 463 q 529 633 568 585 q 413 682 490 682 q 252 617 315 682 q 171 446 189 551 q 165 385 165 418 q 217 242 165 294 q 367 189 268 189 q 407 192 379 189 l 393 113 q 351 110 363 110 q 147 181 218 110 q 75 371 75 253 q 83 450 75 408 q 197 678 108 594 q 413 761 285 761 q 567 699 517 761 q 621 549 617 636 l 624 549 q 719 690 657 631 q 876 760 782 750 l 911 953 l 28 953 l 40 1028 l 1374 1028 l 1360 953 l 997 953 z "},"व":{"ha":939,"x_min":36,"x_max":1069,"o":"m 1069 1028 l 1057 953 l 861 953 l 694 0 l 607 0 l 660 303 q 538 188 614 231 q 364 144 461 144 q 165 214 240 144 q 90 404 90 283 q 97 478 90 433 q 167 644 114 574 q 298 753 221 715 q 465 792 375 792 q 631 749 567 792 q 719 636 694 707 l 775 953 l 36 953 l 50 1028 l 1069 1028 m 392 218 q 540 256 476 218 q 640 350 603 293 q 689 467 678 407 q 693 518 693 492 q 640 661 693 603 q 479 719 588 719 q 347 689 410 719 q 240 602 283 658 q 183 471 196 546 q 178 417 178 432 q 236 271 178 324 q 392 218 294 218 z "},"श":{"ha":1115,"x_min":88,"x_max":1246,"o":"m 508 1040 q 683 979 617 1040 q 750 813 750 918 q 744 749 750 778 q 612 531 718 606 q 356 457 506 457 l 213 457 l 183 290 q 178 229 178 261 q 218 109 178 153 q 338 65 258 65 q 485 126 425 65 q 561 289 544 186 l 647 289 q 547 71 628 153 q 333 -11 467 -11 q 151 51 214 -11 q 88 219 88 113 q 94 294 88 250 l 136 532 l 342 532 q 549 590 461 532 q 657 757 638 649 q 661 803 661 782 q 617 919 661 876 q 500 963 572 963 q 377 927 431 963 q 295 831 324 892 q 267 694 267 771 l 179 694 q 224 874 182 796 q 340 997 267 953 q 508 1040 414 1040 m 1246 1028 l 1233 953 l 1038 953 l 871 0 l 781 0 l 961 1028 l 1246 1028 z "},"ष":{"ha":908,"x_min":36,"x_max":1039,"o":"m 1025 953 l 831 953 l 663 0 l 575 0 l 647 413 q 538 317 604 351 q 389 282 472 282 q 203 352 271 282 q 135 544 135 422 q 143 628 135 585 l 201 953 l 36 953 l 50 1028 l 1039 1028 l 1025 953 m 743 953 l 288 953 l 675 572 l 679 593 l 743 953 m 417 358 q 557 399 496 358 q 651 508 618 440 l 274 881 l 229 626 q 222 558 222 588 q 274 411 222 464 q 417 358 325 358 z "},"स":{"ha":1135,"x_min":38,"x_max":1265,"o":"m 1251 953 l 1056 953 l 889 0 l 801 0 l 890 504 l 208 504 l 169 282 q 164 225 164 256 q 203 107 164 150 q 321 64 243 64 q 460 124 406 64 q 528 281 514 185 l 614 281 q 518 69 597 150 q 313 -12 439 -12 q 138 51 200 -12 q 76 222 76 115 q 83 292 76 250 l 132 571 l 268 571 q 463 637 388 571 q 560 817 539 703 l 585 953 l 38 953 l 50 1028 l 1265 1028 l 1251 953 m 968 953 l 672 953 l 647 817 q 592 674 632 733 q 500 578 553 614 l 903 578 l 968 953 z "},"ह":{"ha":828,"x_min":50,"x_max":958,"o":"m 958 1028 l 944 953 l 743 953 l 713 774 l 700 707 l 442 707 q 318 678 369 707 q 256 583 267 649 q 253 560 253 567 q 278 493 253 521 q 347 453 304 465 q 429 461 388 461 q 578 428 518 461 q 665 345 638 396 q 693 240 693 294 l 608 240 q 556 344 603 299 q 417 389 508 389 q 288 358 346 389 q 194 274 231 326 q 147 161 158 222 q 143 113 143 136 q 192 -17 143 32 q 336 -67 242 -67 q 488 -22 424 -67 q 579 81 553 22 l 665 81 q 600 -28 646 22 q 485 -110 554 -79 q 331 -142 415 -142 q 128 -72 200 -142 q 56 107 56 -3 q 61 165 56 139 q 130 322 76 253 q 265 426 183 390 q 195 483 222 447 q 168 568 168 518 q 171 599 168 576 q 257 730 188 686 q 428 774 326 774 l 626 774 l 658 953 l 50 953 l 64 1028 l 958 1028 z "},"ळ":{"ha":1386,"x_min":25,"x_max":1517,"o":"m 1107 953 l 1074 769 q 1222 688 1167 753 q 1278 522 1278 622 q 1272 457 1278 489 q 1205 296 1257 367 q 1076 186 1153 225 q 911 147 999 147 q 737 205 804 147 q 660 350 669 263 l 656 350 q 531 205 617 263 q 339 147 446 147 q 148 215 221 147 q 75 396 75 283 q 81 457 75 429 q 149 624 97 551 q 278 735 201 696 q 442 774 356 774 q 615 718 551 774 q 696 574 679 663 l 699 574 q 817 711 743 657 q 989 772 890 765 l 1021 953 l 25 953 l 38 1028 l 1517 1028 l 1504 953 l 1107 953 m 632 457 q 636 510 636 485 q 585 646 636 594 q 443 697 533 697 q 263 631 340 697 q 167 457 185 565 q 163 411 163 435 q 217 276 163 326 q 360 225 271 225 q 538 290 463 225 q 632 457 613 356 m 1186 457 q 1190 507 1190 485 q 1137 646 1190 594 q 996 697 1083 697 q 816 631 892 697 q 721 457 740 564 q 717 410 717 432 q 769 276 717 326 q 911 225 821 225 q 1090 290 1013 225 q 1186 457 1168 354 z "},"क़":{"ha":1392,"x_min":36,"x_max":1522,"o":"m 824 953 l 767 629 q 878 743 810 700 q 1040 786 947 786 q 1219 718 1150 786 q 1288 539 1288 650 q 1281 469 1288 508 q 1213 298 1263 369 q 1092 189 1164 226 q 935 151 1019 151 q 851 161 890 151 l 864 233 q 928 226 886 226 q 1098 292 1024 226 q 1192 471 1172 358 q 1196 522 1196 499 q 1144 659 1196 608 q 1008 710 1092 710 q 832 642 901 710 q 740 478 763 574 l 656 0 l 571 0 l 624 303 q 508 190 581 232 q 342 147 436 147 q 159 215 229 147 q 89 400 89 283 q 96 472 89 431 q 164 638 113 567 q 290 748 215 710 q 450 786 364 786 q 605 743 547 786 q 682 629 663 700 l 739 953 l 36 953 l 50 1028 l 1522 1028 l 1510 953 l 824 953 m 656 483 q 657 517 657 494 q 609 654 657 599 q 461 710 561 710 q 339 681 397 710 q 239 597 281 651 q 185 471 197 543 q 181 417 181 442 q 234 275 181 326 q 376 224 288 224 q 512 259 454 224 q 604 347 569 294 q 651 457 639 400 l 656 483 m 278 -101 q 238 -86 254 -101 q 222 -47 222 -71 q 246 6 222 -17 q 300 28 269 28 q 339 13 324 28 q 354 -25 354 -1 q 331 -78 354 -56 q 278 -101 308 -101 z "},"ख़":{"ha":1286,"x_min":38,"x_max":1417,"o":"m 1417 1028 l 1404 953 l 1208 953 l 1042 0 l 953 0 l 1011 328 q 910 234 972 269 q 767 199 847 199 q 713 204 735 199 q 567 55 657 113 q 367 -3 478 -3 q 158 64 233 -3 q 83 251 83 131 q 90 326 83 282 l 129 551 l 182 551 q 421 768 383 551 l 453 953 l 38 953 l 50 1028 l 1417 1028 m 1121 953 l 542 953 l 508 758 q 403 548 482 611 q 211 485 324 485 l 206 485 l 176 318 q 171 264 171 279 q 226 126 171 176 q 383 75 282 75 q 534 119 467 75 q 644 231 601 163 q 567 312 594 260 q 539 433 539 364 q 544 493 539 465 q 603 637 558 575 q 715 732 649 699 q 857 765 781 765 q 994 729 942 765 q 1065 635 1046 693 l 1121 953 m 796 269 q 915 301 864 269 q 998 382 967 333 q 1038 482 1029 431 q 1042 525 1042 503 q 998 647 1042 597 q 864 696 954 696 q 707 639 775 696 q 622 486 639 582 q 618 438 618 461 q 667 314 618 358 q 796 269 717 269 m 301 -250 q 262 -235 278 -250 q 246 -196 246 -219 q 269 -143 246 -165 q 324 -121 293 -121 q 363 -135 347 -121 q 378 -174 378 -150 q 355 -227 378 -204 q 301 -250 332 -250 z "},"ग़":{"ha":1010,"x_min":36,"x_max":1140,"o":"m 1140 1028 l 1126 953 l 932 953 l 764 0 l 676 0 l 843 953 l 578 953 l 508 561 q 428 396 490 460 q 260 332 367 332 q 122 381 169 332 q 74 508 74 429 q 78 556 74 531 q 88 599 83 583 l 174 599 l 165 554 q 161 515 161 536 q 186 438 161 468 q 265 408 211 408 q 371 451 335 408 q 419 558 407 494 l 489 953 l 36 953 l 50 1028 l 1140 1028 m 218 75 q 178 90 194 75 q 163 129 163 106 q 186 182 163 160 q 240 204 210 204 q 279 190 264 204 q 294 151 294 175 q 272 98 294 121 q 218 75 249 75 z "},"ज़":{"ha":1160,"x_min":36,"x_max":1290,"o":"m 1278 953 l 1082 953 l 915 0 l 826 0 l 936 621 l 644 621 l 617 465 q 515 268 596 343 q 313 193 433 193 q 157 253 214 194 q 100 407 100 311 q 106 468 100 440 l 146 697 l 235 697 l 194 467 q 190 417 190 440 q 226 311 190 350 q 325 272 261 272 q 460 326 404 272 q 531 467 515 379 l 572 697 l 950 697 l 994 953 l 36 953 l 50 1028 l 1290 1028 l 1278 953 m 274 -54 q 234 -39 250 -54 q 218 0 218 -24 q 242 53 218 31 q 296 75 265 75 q 335 60 319 75 q 350 22 350 46 q 327 -31 350 -8 q 274 -54 304 -54 z "},"ड़":{"ha":803,"x_min":39,"x_max":933,"o":"m 439 703 q 300 674 360 703 q 228 572 240 646 q 225 547 225 553 q 266 469 225 494 q 371 444 307 444 l 433 444 q 610 399 539 444 q 681 258 681 353 q 676 210 681 235 q 574 44 658 107 q 351 -18 490 -18 q 134 44 213 -18 q 56 207 56 107 q 60 250 56 229 l 149 250 q 146 214 146 238 q 200 96 146 140 q 358 51 254 51 q 517 97 456 51 q 592 213 579 143 q 594 249 594 225 q 542 349 594 319 q 407 379 489 379 l 350 379 q 199 418 261 379 q 136 538 136 457 q 140 576 136 556 q 237 723 157 678 q 422 768 317 768 l 599 768 l 631 953 l 39 953 l 51 1028 l 933 1028 l 919 953 l 717 953 l 672 703 l 439 703 m 297 -267 q 258 -251 274 -267 q 242 -212 242 -236 q 265 -160 242 -182 q 319 -137 289 -137 q 358 -152 343 -137 q 374 -190 374 -167 q 351 -244 374 -221 q 297 -267 328 -267 z "},"ढ़":{"ha":883,"x_min":35,"x_max":1014,"o":"m 571 717 q 388 681 472 717 q 244 572 303 644 q 168 396 186 500 q 163 333 163 367 q 237 153 163 221 q 438 85 311 85 q 625 141 546 85 q 719 286 704 197 q 722 319 722 308 q 687 410 722 375 q 593 446 651 446 q 485 408 532 446 q 429 310 439 371 q 426 281 426 300 l 358 281 q 363 319 358 303 q 445 460 378 408 q 607 511 513 511 q 748 460 694 511 q 801 326 801 408 q 797 283 801 307 q 733 145 783 206 q 604 51 683 85 q 428 18 525 18 q 245 57 325 18 q 121 167 165 96 q 76 332 76 238 q 82 401 76 369 q 173 612 104 526 q 342 739 242 697 q 560 781 443 781 l 622 781 l 653 953 l 35 953 l 49 1028 l 1014 1028 l 1000 953 l 736 953 l 696 717 l 571 717 m 346 -231 q 306 -215 322 -231 q 290 -176 290 -200 q 314 -124 290 -146 q 368 -101 338 -101 q 407 -116 392 -101 q 422 -154 422 -131 q 399 -208 422 -185 q 346 -231 376 -231 z "},"फ़":{"ha":1369,"x_min":36,"x_max":1500,"o":"m 797 953 l 740 628 q 856 743 783 700 q 1024 786 928 786 q 1199 720 1133 786 q 1265 542 1265 654 q 1260 474 1265 506 q 1191 301 1242 374 q 1067 190 1140 228 q 911 151 994 151 q 826 163 863 151 l 839 233 q 906 225 868 225 q 1076 291 1003 225 q 1169 471 1149 357 q 1174 521 1174 499 q 1122 659 1174 608 q 986 710 1069 710 q 850 673 908 710 q 757 578 792 636 q 710 457 722 521 l 631 0 l 542 0 l 614 415 q 510 321 572 354 q 369 288 447 288 q 194 351 254 288 q 135 531 135 415 q 143 624 135 574 l 201 953 l 36 953 l 50 1028 l 1500 1028 l 1486 953 l 797 953 m 708 953 l 290 953 l 232 624 q 224 543 224 581 q 267 410 224 457 q 400 364 311 364 q 557 423 493 364 q 642 574 621 482 l 708 953 m 290 42 q 251 57 267 42 q 235 96 235 72 q 258 149 235 126 q 313 171 282 171 q 351 156 336 171 q 367 118 367 142 q 344 65 367 88 q 290 42 321 42 z "},"ऱ":{"ha":746,"x_min":-8,"x_max":876,"o":"m 864 953 l 685 953 l 660 806 q 539 567 632 649 q 293 485 446 485 l 206 485 l 171 282 q 164 222 164 247 q 203 107 164 150 q 318 64 243 64 q 453 118 399 64 q 524 265 507 172 l 526 288 l 613 288 l 610 268 q 510 63 588 138 q 313 -12 432 -12 q 139 49 201 -12 q 76 214 76 111 q 83 286 76 256 l 131 558 l 279 558 q 475 620 401 558 q 571 806 549 682 l 597 953 l 38 953 l 51 1028 l 876 1028 l 864 953 m 47 -203 q 8 -187 24 -203 q -8 -149 -8 -172 q 15 -96 -8 -118 q 69 -74 39 -74 q 108 -88 93 -74 q 124 -126 124 -103 q 101 -180 124 -157 q 47 -203 78 -203 z "},"ं":{"ha":0,"x_min":-139,"x_max":-7,"o":"m -83 1168 q -124 1183 -108 1168 q -139 1219 -139 1197 q -137 1232 -139 1228 q -112 1278 -133 1260 q -62 1297 -90 1297 q -22 1283 -37 1297 q -7 1244 -7 1268 q -30 1191 -7 1214 q -83 1168 -53 1168 z "},"ँ":{"ha":0,"x_min":-324,"x_max":219,"o":"m -51 1363 q -82 1374 -71 1363 q -93 1404 -93 1385 q -76 1446 -93 1429 q -33 1463 -58 1463 q -1 1451 -14 1463 q 11 1422 11 1440 q -8 1380 11 1397 q -51 1363 -26 1363 m -83 1139 q -260 1194 -197 1139 q -324 1332 -324 1250 q -319 1371 -324 1353 l -246 1371 q -249 1343 -249 1351 q -206 1245 -249 1285 q -79 1206 -164 1206 q 33 1229 -15 1206 q 110 1291 82 1253 q 146 1371 139 1329 l 219 1371 q 124 1206 203 1274 q -83 1139 46 1139 z "},"ः":{"ha":304,"x_min":49,"x_max":260,"o":"m 179 628 q 139 642 154 628 q 124 679 124 657 q 125 692 124 688 q 151 738 129 719 q 201 757 174 757 q 244 738 229 757 q 256 692 260 719 q 228 646 250 664 q 179 628 207 628 m 104 201 q 64 216 79 201 q 49 253 49 231 q 72 306 49 283 q 126 329 94 329 q 165 315 150 329 q 181 278 181 300 q 179 265 181 269 q 153 220 175 239 q 104 201 132 201 z "},"ऽ":{"ha":793,"x_min":38,"x_max":743,"o":"m 51 167 l 385 167 q 484 201 449 167 q 519 283 519 235 q 488 372 519 329 q 393 478 457 414 q 276 611 317 553 q 235 739 235 669 q 238 775 235 763 q 315 896 253 858 q 468 933 378 933 l 743 933 l 729 857 l 478 857 q 369 832 414 857 q 325 743 325 807 q 358 651 325 696 q 454 544 390 607 q 569 413 529 469 q 608 289 608 356 q 553 149 608 206 q 390 92 497 92 l 38 92 l 51 167 z "},"्":{"ha":0,"x_min":-344,"x_max":-133,"o":"m -344 -86 l -256 -86 l -133 -354 l -225 -354 l -344 -86 z "},"़":{"ha":0,"x_min":-593,"x_max":-461,"o":"m -537 -164 q -577 -149 -561 -164 q -593 -110 -593 -133 q -569 -57 -593 -79 q -515 -35 -546 -35 q -476 -49 -492 -35 q -461 -87 -461 -64 q -484 -141 -461 -118 q -537 -164 -507 -164 z "},"०":{"ha":811,"x_min":65,"x_max":779,"o":"m 85 494 q 65 297 65 385 q 128 73 65 151 q 335 -6 190 -6 q 620 126 522 -6 q 760 494 718 257 q 779 690 779 603 q 717 913 779 835 q 510 992 654 992 q 224 861 321 992 q 85 494 126 731 m 663 494 q 606 277 640 365 q 510 138 572 189 q 350 86 449 86 q 204 143 247 86 q 161 306 161 200 q 181 494 161 389 q 237 710 203 622 q 333 849 271 797 q 493 900 394 900 q 639 844 596 900 q 682 682 682 788 q 663 494 682 600 z "},"१":{"ha":374,"x_min":81,"x_max":354,"o":"m 90 889 l 106 979 l 354 979 l 182 0 l 81 0 l 238 889 l 90 889 z "},"२":{"ha":776,"x_min":-22,"x_max":749,"o":"m -10 74 q 442 394 267 236 q 642 686 617 551 q 647 746 647 714 q 604 865 647 821 q 468 910 561 910 q 294 844 361 910 q 206 660 226 779 l 110 660 q 241 908 139 824 q 485 993 343 993 q 677 935 606 993 q 749 763 749 876 q 742 690 749 735 q 625 466 722 581 q 396 253 528 351 q 132 85 264 156 l 658 85 l 644 4 l -22 4 l -10 74 z "},"३":{"ha":771,"x_min":26,"x_max":756,"o":"m 499 1000 q 689 941 622 1000 q 756 786 756 882 q 751 735 756 763 q 669 589 736 649 q 490 518 603 529 l 489 510 q 634 432 581 486 q 688 288 688 378 q 682 229 688 257 q 579 56 664 122 q 353 -10 494 -10 q 110 69 194 -10 q 32 292 26 147 l 128 292 q 182 133 125 192 q 361 75 239 75 q 516 121 457 75 q 588 240 575 167 q 592 285 592 264 q 522 422 592 375 q 324 469 451 469 l 293 469 l 307 551 l 338 551 q 654 728 621 551 q 658 767 658 749 q 613 877 658 836 q 482 918 567 918 q 315 866 390 918 q 218 713 240 814 l 122 713 q 249 924 149 847 q 499 1000 350 1000 z "},"४":{"ha":811,"x_min":-7,"x_max":782,"o":"m -7 236 l 8 317 l 643 983 l 746 983 l 631 322 l 782 322 l 767 236 l 614 236 l 574 0 l 475 0 l 515 236 l -7 236 m 632 863 l 113 322 l 538 322 l 632 863 z "},"५":{"ha":825,"x_min":57,"x_max":804,"o":"m 789 901 l 269 901 l 206 539 q 326 619 251 589 q 482 650 401 650 q 680 579 615 650 q 744 394 744 508 q 736 313 744 354 q 615 83 711 174 q 363 -7 519 -7 q 138 64 219 -7 q 57 257 57 135 l 58 282 l 154 282 q 213 132 154 185 q 374 79 271 79 q 555 144 486 79 q 642 314 624 208 q 647 379 647 343 q 596 520 647 469 q 447 571 544 571 q 304 537 375 571 q 192 446 233 503 l 99 446 l 194 988 l 804 988 l 789 901 z "},"६":{"ha":831,"x_min":69,"x_max":786,"o":"m 692 721 q 506 919 685 919 q 289 808 372 919 q 172 451 206 697 q 296 597 207 543 q 493 650 385 650 q 688 585 619 650 q 757 400 757 519 q 749 313 757 358 q 687 151 733 224 q 561 34 640 78 q 374 -10 482 -10 q 139 74 208 -10 q 69 306 69 158 q 88 485 69 383 q 234 869 132 739 q 521 1000 336 1000 q 724 923 661 1000 q 785 721 786 846 l 692 721 m 164 340 q 158 282 158 314 q 213 133 158 192 q 379 75 267 75 q 562 138 486 75 q 657 314 638 201 q 664 382 664 353 q 610 524 664 475 q 461 572 557 572 q 333 547 397 572 q 223 469 269 521 q 164 340 176 417 z "},"७":{"ha":656,"x_min":68,"x_max":721,"o":"m 708 907 l 172 0 l 69 0 l 608 897 l 68 897 l 83 982 l 721 982 l 708 907 z "},"८":{"ha":851,"x_min":29,"x_max":810,"o":"m 146 760 q 207 884 158 829 q 336 971 256 939 q 521 1003 417 1003 q 735 942 660 1003 q 810 781 810 881 q 806 732 810 757 q 734 598 792 654 q 576 517 676 542 q 709 439 663 494 q 756 300 756 383 q 750 243 756 269 q 618 42 728 115 q 339 -31 508 -31 q 112 35 194 -31 q 29 217 29 100 q 35 276 29 249 q 119 430 51 368 q 294 517 188 492 q 178 587 217 538 q 140 706 140 636 q 146 760 140 724 m 240 743 q 236 701 236 721 q 291 585 236 626 q 440 544 346 544 q 620 591 549 544 q 707 722 692 638 q 711 764 711 746 q 656 881 711 840 q 507 922 601 922 q 328 876 400 922 q 240 743 256 829 m 131 278 q 126 232 126 253 q 187 99 126 146 q 353 51 247 51 q 554 106 474 51 q 653 257 635 160 q 657 301 657 281 q 594 432 657 389 q 428 475 531 475 q 231 426 314 475 q 131 278 149 376 z "},"९":{"ha":836,"x_min":63,"x_max":786,"o":"m 161 269 q 202 122 158 174 q 339 69 246 69 q 561 181 475 69 q 682 538 647 293 q 557 393 646 447 q 361 339 468 339 q 165 405 233 339 q 96 592 96 471 q 104 676 96 631 q 167 838 119 765 q 294 955 214 911 q 483 999 375 999 q 717 917 647 999 q 786 690 786 835 q 767 504 786 618 q 620 121 722 253 q 328 -11 518 -11 q 127 67 192 -11 q 69 269 63 146 l 161 269 m 690 650 q 696 707 696 689 q 642 856 696 797 q 475 914 588 914 q 292 850 368 914 q 197 672 217 786 q 190 606 190 633 q 244 465 190 514 q 393 417 297 417 q 520 442 457 417 q 630 521 583 468 q 690 650 676 574 z "},"ॐ":{"ha":1461,"x_min":40,"x_max":1333,"o":"m 906 1264 q 876 1276 888 1264 q 864 1307 864 1288 q 882 1348 864 1331 q 924 1365 900 1365 q 953 1353 942 1365 q 965 1324 965 1342 q 947 1281 965 1299 q 906 1264 929 1264 m 881 1040 q 698 1095 761 1040 q 635 1231 635 1150 q 639 1272 635 1251 l 711 1272 q 708 1244 708 1253 q 753 1147 708 1188 q 885 1107 797 1107 q 1035 1156 979 1107 q 1104 1272 1092 1206 l 1176 1272 q 1085 1107 1160 1174 q 881 1040 1011 1040 m 1121 956 q 1333 731 1333 956 q 1322 611 1333 681 l 1288 415 q 1156 132 1254 226 q 874 38 1057 38 q 740 51 821 38 l 753 126 q 874 114 835 114 q 1100 191 1025 114 q 1201 418 1175 268 l 1238 621 q 1247 721 1247 671 q 1214 839 1247 799 q 1107 879 1181 879 q 969 826 1018 879 q 904 688 919 774 q 813 503 881 558 q 624 447 744 447 l 611 447 q 633 346 633 404 q 629 294 633 322 q 515 94 606 169 q 299 18 425 18 q 111 79 182 18 q 40 242 40 140 q 46 297 40 271 l 129 297 q 126 258 126 283 q 176 140 126 185 q 307 94 225 94 q 465 152 399 94 q 549 301 532 210 q 551 339 551 326 q 508 454 551 408 q 369 500 464 500 l 318 500 l 331 576 l 383 576 q 538 631 478 576 q 611 757 599 685 q 615 797 615 778 q 569 908 615 868 q 450 949 522 949 q 303 901 367 949 q 224 772 239 853 l 140 772 q 251 956 161 888 q 465 1025 342 1025 q 636 970 572 1025 q 700 819 700 915 q 696 769 700 794 q 625 622 681 683 q 481 543 569 561 l 481 540 q 540 519 515 533 l 625 519 q 754 558 704 519 q 821 688 804 596 q 1121 956 868 956 z "},"॰":{"ha":692,"x_min":114,"x_max":578,"o":"m 574 488 q 485 328 557 390 q 313 267 413 267 q 169 317 224 267 q 114 446 114 367 q 118 489 114 467 q 210 649 135 588 q 386 711 285 711 q 526 663 474 711 q 578 532 578 614 q 574 488 578 511 m 175 457 q 214 361 175 397 q 319 325 253 325 q 446 370 392 325 q 514 488 500 415 q 517 521 517 510 q 479 617 517 581 q 378 653 442 653 q 276 627 322 653 q 202 557 229 601 q 175 457 175 513 z "},"।":{"ha":369,"x_min":131,"x_max":399,"o":"m 218 0 l 131 0 l 311 1031 l 399 1031 l 218 0 z "},"॥":{"ha":639,"x_min":131,"x_max":669,"o":"m 218 0 l 131 0 l 311 1031 l 399 1031 l 218 0 m 489 0 l 400 0 l 581 1031 l 669 1031 l 489 0 z "},"₨":{"ha":1458,"x_min":21,"x_max":1393,"o":"m 493 979 q 706 919 636 979 q 776 756 776 860 q 771 692 776 721 q 667 497 749 569 q 451 411 585 425 l 657 0 l 546 0 l 349 408 l 190 408 l 119 0 l 21 0 l 193 979 l 493 979 m 671 686 q 676 739 676 722 q 471 894 676 894 l 276 894 l 203 482 l 399 482 q 671 686 633 482 m 1293 526 q 1253 646 1296 599 q 1122 693 1210 693 q 994 656 1044 693 q 932 558 943 619 q 931 538 931 551 q 976 460 931 485 q 1114 415 1022 436 q 1233 381 1189 397 q 1310 330 1278 364 q 1342 239 1342 296 q 1305 113 1342 169 q 1203 23 1268 56 q 1056 -10 1138 -10 q 851 55 924 -10 q 782 232 778 119 l 878 232 q 923 113 874 160 q 1068 65 972 65 q 1190 103 1143 65 q 1249 200 1238 140 q 1250 222 1250 208 q 1225 285 1250 261 q 1163 323 1200 310 q 1063 351 1126 336 q 946 386 990 369 q 871 435 901 403 q 840 522 840 468 q 878 649 840 593 q 983 737 915 706 q 1136 768 1050 768 q 1328 703 1263 768 q 1389 526 1393 638 l 1293 526 z "},"₹":{"ha":903,"x_min":99,"x_max":919,"o":"m 679 731 q 678 726 679 728 l 875 726 l 864 665 l 665 665 q 591 515 640 569 q 454 438 542 461 q 222 414 367 414 l 197 274 q 192 210 192 244 q 343 63 192 63 q 554 265 518 63 l 646 265 q 540 59 621 132 q 333 -14 458 -14 q 158 42 217 -14 q 99 200 99 97 q 107 281 99 238 l 143 482 q 390 496 307 482 q 515 548 474 510 q 575 665 556 586 l 118 665 l 129 726 l 588 726 q 589 731 589 728 l 621 910 l 161 910 l 172 979 l 919 979 l 907 910 l 713 910 l 679 731 z "},"‌":{"ha":0,"x_min":-32,"x_max":33,"o":"m -32 1126 l 33 1126 l 33 -319 l -32 -319 l -32 1126 z "},"‍":{"ha":0,"x_min":-178,"x_max":178,"o":"m 32 882 l 32 -319 l -33 -319 l -33 882 l -129 781 l -175 826 l -46 956 l -178 1088 l -132 1133 l 0 1001 l 133 1133 l 178 1089 l 44 956 l 178 824 l 132 778 l 32 882 z "},"◌":{"ha":904,"x_min":69,"x_max":835,"o":"m 418 633 q 375 649 392 633 q 358 692 358 665 q 375 734 358 718 q 418 750 392 750 q 461 734 444 750 q 478 692 478 718 q 461 649 478 665 q 418 633 444 633 m 586 613 q 543 628 560 613 q 526 671 526 644 q 543 713 526 697 q 586 729 560 729 q 629 713 613 729 q 646 671 646 697 q 629 628 646 644 q 586 613 613 613 m 256 575 q 213 591 229 575 q 196 633 196 607 q 213 676 196 660 q 256 692 229 692 q 299 676 282 692 q 315 633 315 660 q 299 591 315 607 q 256 575 282 575 m 714 510 q 671 526 688 510 q 654 568 654 542 q 671 610 654 594 q 714 626 688 626 q 757 610 740 626 q 774 568 774 594 q 757 526 774 542 q 714 510 740 510 m 150 438 q 107 453 124 438 q 90 496 90 469 q 107 538 90 522 q 150 554 124 554 q 193 538 176 554 q 210 496 210 522 q 193 453 210 469 q 150 438 176 438 m 775 351 q 732 367 749 351 q 715 410 715 383 q 732 452 715 436 q 775 468 749 468 q 818 452 801 468 q 835 410 835 436 q 818 367 835 383 q 775 351 801 351 m 129 269 q 86 285 103 269 q 69 328 69 301 q 86 370 69 354 q 129 386 103 386 q 172 370 156 386 q 189 328 189 354 q 172 285 189 301 q 129 269 156 269 m 761 185 q 718 201 735 185 q 701 243 701 217 q 718 285 701 269 q 761 301 735 301 q 804 285 788 301 q 821 243 821 269 q 804 201 821 217 q 761 185 788 185 m 192 113 q 149 128 165 113 q 132 171 132 144 q 149 213 132 197 q 192 229 165 229 q 235 213 218 229 q 251 171 251 197 q 235 128 251 144 q 192 113 218 113 m 660 51 q 617 67 633 51 q 600 110 600 83 q 617 152 600 136 q 660 168 633 168 q 703 152 686 168 q 719 110 719 136 q 703 67 719 83 q 660 51 686 51 m 328 7 q 285 23 301 7 q 268 65 268 39 q 285 108 268 92 q 328 124 301 124 q 371 108 354 124 q 388 65 388 92 q 371 23 388 39 q 328 7 354 7 m 500 -12 q 457 3 474 -12 q 440 46 440 19 q 457 88 440 72 q 500 104 474 104 q 543 88 526 104 q 560 46 560 72 q 543 3 560 19 q 500 -12 526 -12 z "},"!":{"ha":385,"x_min":44,"x_max":336,"o":"m 336 996 l 193 272 l 115 272 l 228 996 l 336 996 m 196 125 l 172 0 l 44 0 l 67 125 l 196 125 z "},"\"":{"ha":375,"x_min":47,"x_max":342,"o":"m 175 1106 l 115 838 l 47 838 l 82 1106 l 175 1106 m 342 1106 l 282 838 l 214 838 l 249 1106 l 342 1106 z "},"#":{"ha":1099,"x_min":7,"x_max":1089,"o":"m 850 631 l 756 390 l 956 390 l 939 301 l 721 301 l 604 0 l 511 0 l 628 301 l 318 301 l 201 0 l 110 0 l 226 301 l 7 301 l 24 390 l 261 390 l 356 631 l 142 631 l 157 719 l 390 719 l 510 1028 l 601 1028 l 482 719 l 792 719 l 911 1028 l 1004 1028 l 885 719 l 1089 719 l 1074 631 l 850 631 m 757 631 l 447 631 l 353 390 l 663 390 l 757 631 z "},"$":{"ha":789,"x_min":33,"x_max":743,"o":"m 638 753 q 599 854 636 808 q 486 911 561 900 l 419 538 q 558 486 508 508 q 643 420 607 464 q 679 304 679 376 q 674 249 679 288 q 620 123 663 182 q 504 27 578 64 q 331 -10 431 -10 l 324 -10 l 304 -121 l 267 -121 l 286 -8 q 101 69 168 3 q 33 233 33 136 l 35 256 l 138 256 q 174 138 133 193 q 300 71 214 82 l 368 460 q 232 509 281 488 q 147 574 183 531 q 111 686 111 617 q 117 740 111 701 q 229 921 136 851 q 460 990 322 990 l 463 990 l 483 1111 l 521 1111 l 499 989 q 682 913 621 979 q 742 753 743 846 l 638 753 m 449 914 l 444 914 q 295 869 356 914 q 221 744 235 825 q 218 710 218 732 q 261 611 218 646 q 385 549 304 576 l 449 914 m 571 247 q 574 282 574 260 q 530 384 574 349 q 404 447 486 419 l 338 68 l 342 68 q 497 119 436 68 q 571 247 557 169 z "},"%":{"ha":863,"x_min":11,"x_max":851,"o":"m 332 992 q 452 949 407 992 q 497 835 497 906 q 493 794 497 815 q 412 651 476 706 q 263 597 347 597 q 144 640 189 597 q 99 754 99 682 q 103 794 99 774 q 183 938 118 883 q 332 992 247 992 m 851 981 l 108 0 l 11 0 l 754 981 l 851 981 m 171 764 q 199 689 171 717 q 274 661 226 661 q 370 698 329 661 q 422 794 411 735 q 425 822 425 814 q 397 899 425 869 q 321 928 369 928 q 215 881 258 928 q 171 764 171 833 m 600 383 q 719 341 675 383 q 764 228 764 299 q 760 186 764 207 q 681 42 744 97 q 532 -12 617 -12 q 412 31 457 -12 q 367 146 367 74 q 371 186 367 165 q 451 329 386 275 q 600 383 515 383 m 439 156 q 467 80 439 108 q 542 51 494 51 q 638 89 597 51 q 689 186 678 126 q 692 215 692 206 q 664 291 692 263 q 589 319 636 319 q 483 272 526 319 q 439 156 439 225 z "},"&":{"ha":943,"x_min":7,"x_max":847,"o":"m 744 0 l 547 271 q 531 199 547 243 q 427 49 504 107 q 251 -10 350 -10 q 74 52 142 -10 q 7 219 7 114 q 13 278 7 250 q 72 426 28 364 q 179 521 117 489 q 310 553 242 553 q 363 546 338 553 l 340 579 q 298 652 313 618 q 283 729 283 686 q 288 776 283 751 q 333 881 297 832 q 428 959 369 929 q 564 989 488 989 q 726 935 675 989 q 778 799 778 881 q 776 774 778 782 q 768 704 776 738 l 676 704 q 683 744 683 739 q 686 781 686 757 q 651 874 686 840 q 551 907 615 907 q 434 866 481 907 q 379 768 388 825 q 375 731 375 747 q 387 670 375 697 q 424 608 399 643 l 847 0 l 744 0 m 492 265 q 494 300 494 288 q 469 390 494 350 q 403 453 444 431 q 315 475 363 475 q 176 425 236 475 q 100 281 117 375 q 96 238 96 258 q 144 118 96 161 q 267 75 192 75 q 414 128 350 75 q 492 265 478 182 z "},"'":{"ha":217,"x_min":51,"x_max":183,"o":"m 183 1106 l 119 838 l 51 838 l 82 1106 l 183 1106 z "},"(":{"ha":521,"x_min":49,"x_max":669,"o":"m 68 560 q 252 1037 115 828 q 575 1374 389 1246 l 669 1374 l 668 1363 q 332 1010 458 1214 q 163 560 206 807 q 142 344 142 447 q 385 -244 142 -15 l 383 -254 l 288 -254 q 113 -1 176 -153 q 49 344 49 151 q 68 560 49 453 z "},")":{"ha":522,"x_min":-149,"x_max":474,"o":"m 454 560 q 271 83 407 292 q -53 -254 135 -126 l -149 -254 l -146 -244 q 190 108 64 -96 q 360 560 317 313 q 379 775 379 663 q 136 1363 379 1136 l 139 1374 l 235 1374 q 410 1120 346 1272 q 474 775 474 968 q 454 560 474 667 z "},"*":{"ha":642,"x_min":57,"x_max":588,"o":"m 554 926 l 588 838 l 368 758 l 561 681 l 496 592 l 346 719 l 333 500 l 232 500 l 293 719 l 93 588 l 57 679 l 275 758 l 85 839 l 154 929 l 307 800 l 322 1017 l 424 1017 l 360 800 l 554 926 z "},"+":{"ha":806,"x_min":40,"x_max":765,"o":"m 749 469 l 442 469 l 388 160 l 292 160 l 346 469 l 40 469 l 57 558 l 363 558 l 417 868 l 513 868 l 458 558 l 765 558 l 749 469 z "},",":{"ha":221,"x_min":-7,"x_max":151,"o":"m 150 78 q 151 43 151 65 q 111 -106 151 -49 q -7 -162 71 -162 l 1 -117 q 54 -98 36 -117 q 79 -40 72 -79 l 82 -29 l 19 -29 l 38 78 l 150 78 z "},"-":{"ha":663,"x_min":79,"x_max":636,"o":"m 636 556 l 621 474 l 79 474 l 94 556 l 636 556 z "}}}
